PathFileType	4	(X/Y/Z)	TVC_9_BWA1_walk_RCNL2025.trc
DataRate	CameraRate	NumFrames	NumMarkers	Units	OrigDataRate	OrigDataStartFrame	OrigNumFrames
100	100	10	27	mm	100	149	397
Frame#	Time	R_Shoulder			L_Shoulder			C7			J_Notch			R_Elbow			L_Elbow			R_Wrist			L_Wrist			R_Asis			L_Asis			R_Psis			L_Psis			Sacral			Thoracic			Sternum			R_Thigh_Lateral			R_Knee_Lateral			R_Shank_Lateral			R_Ankle_Lateral			R_Heel			R_Toe			L_Thigh_Lateral			L_Knee_Lateral			L_Shank_Lateral			L_Ankle_Lateral			L_Heel			L_Toe		
		X1	Y1	Z1	X2	Y2	Z2	X3	Y3	Z3	X4	Y4	Z4	X5	Y5	Z5	X6	Y6	Z6	X7	Y7	Z7	X8	Y8	Z8	X9	Y9	Z9	X10	Y10	Z10	X11	Y11	Z11	X12	Y12	Z12	X13	Y13	Z13	X14	Y14	Z14	X15	Y15	Z15	X16	Y16	Z16	X17	Y17	Z17	X18	Y18	Z18	X19	Y19	Z19	X20	Y20	Z20	X21	Y21	Z21	X22	Y22	Z22	X23	Y23	Z23	X24	Y24	Z24	X25	Y25	Z25	X26	Y26	Z26	X27	Y27	Z27
149	1.48000000	-292.494781	1357.654663	-82.196815	-335.878510	1383.715698	-471.592590	-367.881470	1435.489258	-275.338531	-214.606186	1335.833130	-276.895416	-197.299561	1064.610596	42.189106	-447.587158	1063.966919	-540.512390	16.715182	943.024658	-5.568239	-431.877579	817.650604	-551.423706	-264.783295	927.446594	-124.999924	-277.210785	928.557495	-433.342682	-462.094116	948.316101	-219.429489	-464.940979	939.505005	-316.836487	-463.517548	943.910553	-268.132988	-461.645630	1156.923340	-272.445282	-157.698746	1146.381226	-283.997803	-352.678650	530.957764	-72.337730	-372.038269	451.149475	-146.763641	-395.630188	292.167694	-108.098663	-452.596954	73.701187	-190.648376	-505.454742	64.366882	-254.564529	-323.941986	48.896923	-223.179840	-151.724701	591.330872	-480.625671	-117.807671	478.113861	-422.765991	-79.995995	341.568268	-476.762482	-44.584709	112.592903	-410.571381	-84.365891	67.544769	-352.545227	100.586960	124.790070	-390.104004
150	1.49000000	-284.786438	1356.478027	-83.053520	-328.187378	1382.205322	-472.409485	-359.982513	1433.961914	-276.332184	-206.652298	1334.365234	-277.759125	-186.590302	1065.418335	42.474857	-442.897339	1063.218384	-539.759338	29.101401	947.587433	-6.752705	-429.336639	816.708893	-549.378937	-256.768372	926.496521	-125.076599	-268.311859	926.960999	-433.589386	-453.766388	946.620789	-220.257446	-456.254608	937.591309	-317.601349	-455.010498	942.106049	-268.929398	-453.468079	1155.338623	-273.541199	-149.613602	1145.010986	-284.478577	-347.870178	530.282593	-72.476601	-367.877472	450.620972	-146.844742	-393.130219	291.903168	-108.147087	-452.327667	74.026489	-190.781708	-505.235565	65.065956	-254.675415	-323.866241	48.827656	-223.141037	-144.093857	588.811035	-481.111023	-107.956192	477.007172	-422.667511	-68.493866	340.711395	-476.687042	-30.863026	112.171921	-410.653107	-70.038177	66.421890	-352.648041	114.213036	126.043976	-389.956421
151	1.50000000	-277.117798	1355.252197	-83.946152	-320.566956	1380.709106	-473.245361	-352.120636	1432.389404	-277.348572	-198.688965	1332.908081	-278.686798	-176.140549	1066.045654	42.583241	-437.893005	1062.429443	-539.177490	41.035999	951.674286	-7.943809	-426.230865	815.766052	-547.617249	-248.717026	925.519043	-125.188400	-259.323578	925.402893	-433.879791	-445.365845	944.868164	-221.178223	-447.477386	935.656189	-318.471313	-446.421616	940.262177	-269.824768	-445.234589	1153.719849	-274.715393	-141.498459	1143.656128	-285.064117	-342.765900	529.562256	-72.633553	-363.417328	450.057007	-146.924179	-390.411407	291.632141	-108.214264	-452.018646	74.425301	-190.898300	-504.985382	65.878235	-254.779907	-323.785797	48.760647	-223.108521	-136.181046	586.550171	-481.480957	-98.131905	475.783142	-422.638947	-57.662476	339.626190	-476.628937	-18.932539	111.425308	-410.664551	-57.726097	65.169540	-352.668671	126.048752	126.378937	-389.687256
152	1.51000000	-269.477448	1354.001099	-84.881851	-312.981964	1379.229492	-474.115082	-344.274933	1430.793457	-278.402130	-190.702484	1331.479004	-279.681580	-165.957138	1066.490967	42.508503	-432.551331	1061.592041	-538.775818	52.529181	955.262695	-9.131025	-422.553940	814.807861	-546.153351	-240.623383	924.526978	-125.330124	-250.232559	923.895325	-434.207092	-436.885468	943.085876	-222.190582	-438.606293	933.726990	-319.436676	-437.745880	938.406433	-270.813629	-436.933044	1152.085815	-275.958160	-133.342377	1142.328369	-285.752563	-337.372589	528.809631	-72.803848	-358.671021	449.471497	-146.998093	-387.488861	291.375580	-108.279144	-451.666565	74.911797	-190.987152	-504.699799	66.821579	-254.866364	-323.698151	48.694130	-223.078598	-127.981361	584.538513	-481.734253	-88.412399	474.420685	-422.679779	-47.509815	338.289093	-476.588318	-8.695621	110.303940	-410.608185	-47.330124	63.736526	-352.616547	136.197922	125.816811	-389.319092
153	1.52000000	-261.849335	1352.749634	-85.869675	-305.390442	1377.767944	-475.035889	-336.419403	1429.198364	-279.509613	-182.676483	1330.093750	-280.746338	-156.046021	1066.754150	42.247528	-426.853149	1060.699951	-538.562927	63.589899	958.331726	-10.304667	-418.301788	813.823608	-544.997284	-232.475647	923.536194	-125.500404	-241.025604	922.446106	-434.565674	-428.316071	941.304565	-223.292725	-429.637299	931.830627	-320.485626	-428.976685	936.567596	-271.889175	-428.549286	1150.455688	-277.260223	-125.131721	1141.039185	-286.539307	-331.704559	528.042847	-72.983330	-353.658997	448.881958	-147.063370	-384.381622	291.155640	-108.317619	-451.268188	75.500938	-191.036301	-504.374634	67.913895	-254.919434	-323.600311	48.626865	-223.045776	-119.507309	582.740662	-481.879333	-78.876213	472.901947	-422.787323	-38.048767	336.684357	-476.564575	-0.040975	108.787827	-410.488190	-38.726128	62.100079	-352.502625	144.773956	124.407852	-388.879730
154	1.53000000	-254.213455	1351.522461	-86.920158	-297.747650	1376.325806	-476.026123	-328.525330	1427.629272	-280.688904	-174.592728	1328.766479	-281.883942	-146.412231	1066.837402	41.799755	-420.781342	1059.749878	-538.546814	74.225254	960.862457	-11.456090	-413.471634	812.806183	-544.155487	-224.256271	922.565125	-125.702187	-231.691025	921.059021	-434.951721	-419.646454	939.557556	-224.481903	-420.565552	929.993408	-321.605957	-420.106003	934.775482	-273.043930	-420.067780	1148.848022	-278.613403	-116.849930	1139.800171	-287.417480	-325.783905	527.284973	-73.168259	-348.408295	448.308746	-147.117340	-381.111786	290.994629	-108.303940	-450.820740	76.207619	-191.032806	-504.006195	69.171928	-254.920319	-323.488922	48.558537	-223.002548	-110.788567	581.104431	-481.931885	-69.597092	471.215057	-422.958008	-29.295097	334.805573	-476.556305	7.153368	106.884941	-410.309052	-31.771824	60.265110	-352.336823	151.898636	122.224319	-388.398743
155	1.54000000	-246.546722	1350.343994	-88.044540	-290.009796	1374.905640	-477.103821	-320.563721	1426.110962	-281.957977	-166.432159	1327.510620	-283.096985	-137.059891	1066.744507	41.167057	-414.319580	1058.741211	-538.734863	84.440128	962.838226	-12.577868	-408.061172	811.751770	-543.632477	-215.942825	921.633423	-125.943001	-222.220093	919.735229	-435.363251	-410.864166	937.880066	-225.753662	-411.386261	928.241211	-322.786255	-411.125214	933.060638	-274.269958	-411.472412	1147.280273	-280.011261	-108.477623	1138.624634	-288.378418	-319.639343	526.563110	-73.355659	-342.950806	447.774139	-147.157639	-377.703369	290.914612	-108.212906	-450.321869	77.045776	-190.962860	-503.591248	70.610252	-254.847549	-323.360413	48.489986	-222.939819	-101.871765	579.569763	-481.913361	-60.638405	469.357269	-423.189240	-21.262192	332.657776	-476.561890	13.019625	104.629425	-410.074951	-26.310310	58.262077	-352.126556	157.702576	119.354691	-387.903809
156	1.55000000	-238.823807	1349.237427	-89.253502	-282.137421	1373.512207	-478.285583	-312.507965	1424.666260	-283.333679	-158.175766	1326.339600	-284.387909	-127.991974	1066.480957	40.353622	-407.451416	1057.675659	-539.133057	94.237003	964.245056	-13.663993	-402.067841	810.659576	-543.431915	-207.509155	920.760071	-126.234940	-212.608597	918.474426	-435.800659	-401.956696	936.307861	-227.101013	-402.095764	926.599976	-324.017395	-402.026230	931.453918	-275.559204	-402.747986	1145.769287	-281.449219	-99.993301	1137.527466	-289.412750	-313.303101	525.906006	-73.544014	-337.320557	447.300964	-147.182571	-374.180603	290.937500	-108.023003	-449.769440	78.027626	-190.812195	-503.127014	72.240852	-254.678375	-323.211151	48.423256	-222.848114	-92.818954	578.078613	-481.850159	-52.047470	467.338470	-423.480835	-13.953030	330.260315	-476.580353	17.701817	102.079155	-409.790283	-22.170536	56.143208	-351.876892	162.326996	115.899040	-387.417389
157	1.56000000	-231.018021	1348.224243	-90.555771	-274.097656	1372.152344	-479.585144	-304.335632	1423.315308	-284.830292	-149.805359	1325.267334	-285.758942	-119.210175	1066.053467	39.365696	-400.159851	1056.557617	-539.745667	103.616070	965.072083	-14.710012	-395.488571	809.531097	-543.556854	-198.927094	919.961487	-126.594376	-202.858368	917.277100	-436.266754	-392.912811	934.875488	-228.513611	-392.692963	925.095825	-325.292908	-392.802887	929.985657	-276.903259	-393.881805	1144.330933	-282.924286	-91.374596	1136.525146	-290.511475	-306.806854	525.341797	-73.734154	-331.550201	446.911224	-147.191559	-370.565521	291.085297	-107.720062	-449.160767	79.163330	-190.567001	-502.610565	74.073296	-254.390747	-323.037476	48.361416	-222.719299	-83.703529	576.583801	-481.772919	-43.849762	465.184082	-423.835968	-7.350554	327.649200	-476.612457	21.358047	99.312614	-409.461304	-19.165712	53.977219	-351.591736	165.925552	111.965485	-386.954559
158	1.57000000	-223.102036	1347.324463	-91.956909	-265.865814	1370.835571	-481.012512	-296.029327	1422.075684	-286.458374	-141.304291	1324.307983	-287.211914	-110.714737	1065.469727	38.211208	-392.427368	1055.393188	-540.574585	112.575367	965.311981	-15.713201	-388.319672	808.369690	-544.009644	-190.168381	919.249451	-127.041275	-192.978790	916.146545	-436.767212	-383.724396	933.614258	-229.977188	-383.180756	923.755432	-326.608917	-383.452576	928.684845	-278.293053	-384.865387	1142.982056	-284.434235	-82.600075	1135.635864	-291.667450	-300.177094	524.895386	-73.929939	-325.666840	446.624756	-147.185928	-366.875641	291.380463	-107.300819	-448.491516	80.461037	-190.215210	-502.037933	76.115494	-253.965851	-322.835297	48.308151	-222.548370	-74.602989	575.057373	-481.716309	-36.043797	462.937347	-424.261139	-1.408226	324.878784	-476.662079	24.161737	96.424629	-409.098053	-17.091759	51.842720	-351.276215	168.665192	107.667679	-386.522552
